<svg xmlns="http://www.w3.org/2000/svg" viewBox="0 0 1456 1056" role="img" aria-label="AkarFinder"><path d="M 412.749 17.413 C 407.097 18.934, 404.250 21.260, 402.240 26 L 400.756 29.500 400.483 40.618 L 400.210 51.737 398.098 56.118 C 396.936 58.528, 393.774 63.292, 391.071 66.704 L 386.157 72.907 384.455 80.558 L 382.753 88.209 377.849 94.355 C 375.153 97.735, 372.002 102.491, 370.849 104.925 L 368.752 109.349 368.481 120.543 L 368.210 131.737 366.098 136.118 C 364.936 138.528, 361.774 143.292, 359.071 146.704 L 354.157 152.907 352.455 160.558 L 350.753 168.209 345.849 174.355 C 343.153 177.735, 340.002 182.491, 338.849 184.925 L 336.752 189.349 336.483 200.450 L 336.214 211.551 334.633 215.336 C 333.763 217.417, 331.022 221.496, 328.542 224.399 C 326.062 227.302, 323.295 231.437, 322.394 233.589 L 320.756 237.500 320.483 248.618 L 320.210 259.737 318.098 264.118 C 316.936 266.528, 313.774 271.292, 311.071 274.704 L 306.157 280.907 304.455 288.558 L 302.753 296.209 297.849 302.355 C 295.153 305.735, 292.002 310.491, 290.849 312.925 L 288.752 317.349 288.481 328.543 L 288.210 339.737 286.098 344.118 C 284.936 346.528, 281.774 351.292, 279.071 354.704 L 274.157 360.907 272.455 368.558 L 270.753 376.209 265.849 382.355 C 263.153 385.735, 260.002 390.491, 258.849 392.925 L 256.752 397.349 256.481 408.543 L 256.210 419.737 254.098 424.118 C 252.936 426.528, 249.774 431.292, 247.071 434.704 L 242.157 440.907 240.455 448.558 L 238.753 456.209 233.849 462.355 C 231.153 465.735, 228.002 470.491, 226.849 472.925 L 224.752 477.349 224.483 488.450 L 224.214 499.551 222.633 503.336 C 221.763 505.417, 219.022 509.496, 216.542 512.399 C 214.062 515.302, 211.295 519.437, 210.394 521.589 L 208.756 525.500 208.483 536.618 L 208.210 547.737 206.098 552.118 C 204.936 554.528, 201.774 559.292, 199.071 562.704 L 194.157 568.907 192.455 576.558 L 190.753 584.209 185.849 590.355 C 183.153 593.735, 180.002 598.491, 178.849 600.925 L 176.752 605.349 176.483 616.450 L 176.214 627.551 174.633 631.336 C 173.763 633.417, 171.022 637.496, 168.542 640.399 C 166.062 643.302, 163.295 647.437, 162.394 649.589 L 160.756 653.500 160.483 664.618 L 160.210 675.737 158.098 680.118 C 156.936 682.528, 153.774 687.292, 151.071 690.704 L 146.157 696.907 144.455 704.558 L 142.753 712.209 137.849 718.355 C 135.153 721.735, 132.002 726.491, 130.849 728.925 L 128.752 733.349 128.481 744.543 L 128.210 755.737 126.098 760.118 C 124.936 762.528, 121.774 767.292, 119.071 770.704 L 114.157 776.907 112.455 784.558 L 110.753 792.209 105.849 798.355 C 103.153 801.735, 100.002 806.491, 98.849 808.925 L 96.752 813.349 96.481 824.543 L 96.210 835.737 94.098 840.118 C 92.936 842.528, 89.774 847.292, 87.071 850.704 L 82.157 856.907 80.455 864.558 L 78.753 872.209 73.849 878.355 C 71.153 881.735, 68.002 886.491, 66.849 888.925 L 64.752 893.349 64.481 904.543 L 64.210 915.737 62.098 920.118 C 60.936 922.528, 57.774 927.292, 55.071 930.704 L 50.157 936.907 48.455 944.558 L 46.753 952.209 41.849 958.355 C 39.153 961.735, 36.002 966.491, 34.849 968.925 L 32.752 973.349 32.483 984.450 L 32.214 995.551 30.633 999.336 C 29.763 1001.417, 27.073 1005.456, 24.654 1008.310 C 22.236 1011.165, 19.524 1014.940, 18.628 1016.700 L 17 1019.901 17 1024.802 L 17 1029.704 19.263 1033.102 L 21.526 1036.500 25.513 1038.500 L 29.500 1040.500 173.500 1040.768 L 317.500 1041.036 322.689 1039.960 L 327.878 1038.883 330.560 1036.774 C 332.035 1035.614, 333.975 1033.052, 334.871 1031.082 L 336.500 1027.500 336.643 904.840 L 336.785 782.181 337.993 778.522 C 338.657 776.510, 341.435 772.178, 344.166 768.896 C 346.897 765.615, 349.829 761.260, 350.682 759.219 L 352.233 755.508 352.563 744.269 L 352.893 733.030 354.780 728.764 L 356.667 724.498 388.084 692.774 L 419.500 661.049 424.333 658.941 L 429.166 656.833 441.333 656.100 L 453.500 655.368 456.582 653.745 C 458.278 652.852, 461.621 650.487, 464.013 648.489 C 466.404 646.491, 470.192 643.876, 472.431 642.678 L 476.500 640.500 528 640.568 L 579.500 640.637 584 642.826 C 586.475 644.030, 591.292 647.226, 594.704 649.929 L 600.907 654.843 608.463 656.524 L 616.019 658.205 624.485 664.517 L 632.951 670.828 640.215 672.481 C 649.526 674.599, 651.976 676.179, 661.785 686.396 L 669.863 694.810 670.901 698.655 C 671.472 700.770, 672.646 705.106, 673.510 708.291 L 675.080 714.083 678.758 718.291 C 680.780 720.606, 686.500 726.663, 691.468 731.751 L 700.500 741.001 702.480 745.251 L 704.460 749.500 704.480 776.500 L 704.500 803.500 706.266 807.411 C 707.238 809.563, 710.062 813.698, 712.542 816.601 C 715.022 819.504, 717.771 823.594, 718.650 825.690 L 720.247 829.500 720.247 896.500 L 720.247 963.500 718.689 967.215 C 717.833 969.258, 714.897 973.615, 712.166 976.896 C 709.435 980.178, 706.593 984.581, 705.850 986.682 L 704.500 990.500 704.500 1008.500 L 704.500 1026.500 705.817 1030.217 L 707.134 1033.935 710.057 1036.394 L 712.980 1038.854 718.240 1039.943 L 723.500 1041.032 907.500 1040.766 L 1091.500 1040.500 1095.487 1038.500 L 1099.474 1036.500 1101.737 1033.102 L 1104 1029.704 1104 1024.802 L 1104 1019.901 1102.372 1016.700 C 1101.476 1014.940, 1098.764 1011.165, 1096.346 1008.310 C 1093.927 1005.456, 1091.237 1001.417, 1090.367 999.336 L 1088.786 995.551 1088.515 984.526 L 1088.244 973.500 1086.606 969.589 C 1085.705 967.437, 1082.938 963.302, 1080.458 960.399 C 1077.978 957.496, 1075.237 953.417, 1074.367 951.336 L 1072.786 947.551 1072.517 936.450 L 1072.248 925.349 1070.151 920.925 C 1068.998 918.491, 1065.847 913.735, 1063.151 910.355 L 1058.247 904.209 1056.555 896.603 L 1054.863 888.997 1048.534 880.508 L 1042.205 872.019 1040.524 864.463 L 1038.843 856.907 1033.929 850.704 C 1031.226 847.292, 1028.064 842.528, 1026.902 840.118 L 1024.790 835.737 1024.519 824.543 L 1024.248 813.349 1022.151 808.925 C 1020.998 806.491, 1017.847 801.735, 1015.151 798.355 L 1010.247 792.209 1008.545 784.558 L 1006.843 776.907 1001.929 770.704 C 999.226 767.292, 996.064 762.528, 994.902 760.118 L 992.790 755.737 992.517 744.618 L 992.244 733.500 990.606 729.589 C 989.705 727.437, 986.938 723.302, 984.458 720.399 C 981.978 717.496, 979.237 713.417, 978.367 711.336 L 976.786 707.551 976.490 696.526 C 976.147 683.719, 976.073 683.466, 970.331 675.300 C 967.932 671.890, 965.706 667.779, 965.383 666.165 L 964.796 663.232 966.510 659.620 L 968.224 656.008 974.338 650.348 C 977.700 647.235, 982.392 643.830, 984.763 642.780 L 989.076 640.873 1104.418 640.873 L 1219.760 640.873 1223.345 642.371 C 1225.316 643.195, 1229.615 646.103, 1232.896 648.834 C 1236.178 651.565, 1240.581 654.407, 1242.682 655.150 L 1246.500 656.500 1256.500 656.500 L 1266.500 656.500 1270.318 655.150 C 1272.419 654.407, 1276.717 651.652, 1279.871 649.028 C 1283.025 646.403, 1287.022 643.523, 1288.753 642.628 L 1291.901 641 1295.885 641 C 1301.189 641, 1304.485 642.360, 1310.578 647.061 C 1313.374 649.218, 1317.036 651.257, 1318.715 651.593 L 1321.768 652.204 1325.305 650.526 C 1327.250 649.603, 1331.371 646.195, 1334.464 642.952 L 1340.087 637.057 1342.294 632.279 L 1344.500 627.500 1344.500 553 L 1344.500 478.500 1343.183 474.783 L 1341.866 471.065 1338.962 468.622 L 1336.058 466.178 1330.901 465.072 L 1325.743 463.966 909.346 464.018 L 492.949 464.070 489.455 462.412 C 487.533 461.500, 485.060 459.488, 483.958 457.941 L 481.956 455.130 480.872 449.315 L 479.788 443.500 480.207 428.500 L 480.626 413.500 482.820 409 C 484.027 406.525, 487.226 401.708, 489.929 398.296 L 494.843 392.093 496.545 384.442 L 498.247 376.791 503.151 370.645 C 505.847 367.265, 508.998 362.509, 510.151 360.075 L 512.248 355.651 512.517 344.550 L 512.786 333.449 514.367 329.664 C 515.237 327.583, 517.978 323.504, 520.458 320.601 C 522.938 317.698, 525.705 313.563, 526.606 311.411 L 528.244 307.500 528.515 296.474 L 528.786 285.449 530.367 281.664 C 531.237 279.583, 533.978 275.504, 536.458 272.601 C 538.938 269.698, 541.706 265.563, 542.608 263.411 L 544.249 259.500 544.597 248.135 L 544.945 236.770 546.723 233.200 C 547.700 231.236, 549.770 228.700, 551.323 227.565 L 554.147 225.500 560.500 225.500 L 566.853 225.500 569.677 227.565 C 571.230 228.700, 573.300 231.236, 574.277 233.200 L 576.055 236.770 576.399 248.200 L 576.743 259.631 578.845 264.065 C 580 266.504, 583.153 271.265, 585.849 274.645 L 590.753 280.791 592.455 288.442 L 594.157 296.093 599.071 302.296 C 601.774 305.708, 604.936 310.472, 606.098 312.882 L 608.210 317.263 608.481 328.457 L 608.752 339.651 610.849 344.075 C 612.002 346.509, 615.153 351.265, 617.849 354.645 L 622.753 360.791 624.445 368.397 L 626.137 376.003 632.534 384.584 L 638.932 393.165 640.070 398.950 C 640.696 402.132, 642.174 406.443, 643.354 408.529 L 645.500 412.323 649.500 414.412 L 653.500 416.500 752.500 416.500 L 851.500 416.500 855.487 414.500 L 859.474 412.500 861.737 409.102 L 864 405.704 864 400.802 L 864 395.901 862.372 392.700 C 861.476 390.940, 858.764 387.165, 856.346 384.310 C 853.927 381.456, 851.237 377.417, 850.367 375.336 L 848.786 371.551 848.517 360.450 L 848.248 349.349 846.151 344.925 C 844.998 342.491, 841.847 337.735, 839.151 334.355 L 834.247 328.209 832.545 320.558 L 830.843 312.907 825.929 306.704 C 823.226 303.292, 820.064 298.528, 818.902 296.118 L 816.790 291.737 816.519 280.543 L 816.248 269.349 814.151 264.925 C 812.998 262.491, 809.854 257.743, 807.165 254.373 L 802.276 248.246 800.524 241.098 L 798.772 233.950 794.386 227.272 L 790 220.594 790 217.879 C 790 213.778, 790.950 212.077, 794.172 210.411 L 797.102 208.896 1109.384 208.973 L 1421.666 209.051 1426.862 207.936 L 1432.058 206.822 1434.962 204.378 L 1437.866 201.935 1439.183 198.217 L 1440.500 194.500 1440.500 112.500 L 1440.500 30.500 1439.183 26.783 L 1437.866 23.065 1434.962 20.622 L 1432.058 18.178 1426.980 17.089 L 1421.902 16 919.701 16.067 L 417.500 16.135 412.749 17.413 M 495.326 656.987 C 489.951 658.124, 486.823 659.799, 479.714 665.351 C 473.968 669.838, 472.756 670.385, 461.788 673.442 L 456.075 675.034 449.788 679.850 C 441.675 686.065, 441.073 686.360, 431.044 689.057 L 422.588 691.330 413.873 699.732 L 405.158 708.133 403.197 712.317 C 402.118 714.617, 400.702 719.085, 400.048 722.243 L 398.861 727.987 394.180 734.067 C 386.912 743.510, 386.137 744.997, 384.389 752.856 L 382.752 760.213 377.883 766.357 C 375.206 769.735, 371.999 774.525, 370.757 777 L 368.500 781.500 368.230 900.917 L 367.960 1020.334 368.984 1025.917 C 370.229 1032.703, 372.387 1035.869, 377.565 1038.500 L 381.500 1040.500 400.500 1040.500 L 419.500 1040.500 423.435 1038.500 C 428.575 1035.888, 430.746 1032.730, 432.030 1026 L 433.079 1020.500 432.915 892.926 L 432.751 765.352 434.883 760.926 C 436.055 758.492, 439.226 753.708, 441.929 750.296 L 446.843 744.093 448.518 736.563 L 450.193 729.033 452.935 725.267 C 456.695 720.102, 481.688 695.284, 486 692.433 L 489.500 690.120 496.478 688.521 C 507.600 685.974, 520.759 675.793, 522.645 668.277 L 523.287 665.719 522.388 663.162 L 521.489 660.606 518.105 658.629 L 514.721 656.653 507.111 656.379 C 502.925 656.228, 497.622 656.501, 495.326 656.987" fill="currentColor"/></svg>