<svg xmlns="http://www.w3.org/2000/svg" viewBox="0 0 600 800"><rect width="600" height="800" fill="#0e4158"/><path d="M0 260h600v540H0z" fill="#e9e8dd"/><path d="M60 690V340h145v350zm335 0V340h145v350z" fill="#faf9f0"/><path d="M205 690V290h190v400z" fill="#d7d3c2"/><path d="M245 690V435c0-54 24-91 55-91s55 37 55 91v255z" fill="#27758b"/><g fill="#75a7ad"><rect x="95" y="390" width="48" height="72"/><rect x="95" y="505" width="48" height="72"/><rect x="457" y="390" width="48" height="72"/><rect x="457" y="505" width="48" height="72"/></g><path d="M0 690h600v110H0z" fill="#bd9b6c"/><path d="M48 720h504" stroke="#f3e6c9" stroke-width="8" stroke-dasharray="30 20"/></svg>