<svg xmlns="http://www.w3.org/2000/svg" viewBox="0 0 600 800" preserveAspectRatio="xMidYMid slice"><defs><linearGradient id="s" x1="0" y1="0" x2="0" y2="1"><stop stop-color="#061321"/><stop offset=".55" stop-color="#16465a"/><stop offset="1" stop-color="#8db6ad"/></linearGradient></defs><rect width="600" height="800" fill="url(#s)"/><path d="M55 350h205v300H55zM285 285h260v365H285z" fill="#f0eee8"/><path d="M75 385h165v18H75zm0 65h165v18H75zm0 65h165v18H75zm0 65h165v18H75zm232-255h216v18H307zm0 65h216v18H307zm0 65h216v18H307zm0 65h216v18H307zm0 65h216v18H307z" fill="#b7c7c3"/><g fill="#183b4a"><path d="M92 410h42v28H92zm69 0h42v28h-42zm166-58h48v28h-48zm72 0h48v28h-48zm72 0h32v28h-32z"/></g><path d="M0 650h600v150H0z" fill="#092632"/><ellipse cx="300" cy="682" rx="170" ry="34" fill="#1a6b75" opacity=".5"/><g fill="#173c34"><rect x="260" y="578" width="8" height="75" rx="4"/><path d="M264 587c-30-10-38-31-33-51 11 18 25 28 42 31-3-18 2-36 17-51 1 21-6 39-20 54 20-8 38-5 53 6-21 2-38 8-53 20z"/></g></svg>