<svg xmlns="http://www.w3.org/2000/svg" viewBox="0 0 600 800"><defs><linearGradient id="a" x2="0" y2="1"><stop stop-color="#11384d"/><stop offset=".58" stop-color="#4f8fa6"/><stop offset="1" stop-color="#e8c99a"/></linearGradient><linearGradient id="b" x2="0" y2="1"><stop stop-color="#244f5c"/><stop offset="1" stop-color="#102b35"/></linearGradient></defs><rect width="600" height="800" fill="url(#a)"/><circle cx="455" cy="145" r="50" fill="#ffe0a8" opacity=".7"/><path d="M0 455 90 425 165 446 255 400 350 438 445 395 525 425 600 402v195H0Z" fill="#27576a" opacity=".72"/><rect x="88" y="390" width="78" height="248" rx="4" fill="#c58c62"/><path d="M78 390h98l-49-42z" fill="#b5774d"/><g fill="#f0d5ac"><rect x="108" y="435" width="15" height="35"/><rect x="132" y="435" width="15" height="35"/><rect x="108" y="495" width="15" height="35"/><rect x="132" y="495" width="15" height="35"/></g><path d="M210 535h115v103H210zm145-58h125v161H355z" fill="#e1c8aa"/><path d="M230 560h20v40h-20zm42 0h20v40h-20zm105-28h22v42h-22zm48 0h22v42h-22z" fill="#4d7b86"/><rect y="638" width="600" height="162" fill="url(#b)"/><g fill="#31553d"><circle cx="65" cy="620" r="40"/><rect x="60" y="615" width="10" height="85"/><circle cx="525" cy="610" r="47"/><rect x="520" y="610" width="10" height="90"/></g></svg>