<svg xmlns="http://www.w3.org/2000/svg" viewBox="0 0 600 800"><defs><linearGradient id="s" y2="1"><stop stop-color="#0e3448"/><stop offset=".58" stop-color="#77b4c4"/><stop offset="1" stop-color="#f0d7ac"/></linearGradient></defs><rect width="600" height="800" fill="url(#s)"/><circle cx="455" cy="126" r="44" fill="#ffe6b3" opacity=".82"/><path d="M0 455c90-22 150-18 225 5 82 26 162 26 375-7v122H0z" fill="#2a768b"/><path d="M0 574h600v226H0z" fill="#d8b985"/><path d="M55 520h90v130H55zm115-48h80v178h-80zm105 28h110v150H275zm140-55h125v205H415z" fill="#f0dfc5"/><g fill="#40725b"><circle cx="100" cy="660" r="43"/><circle cx="205" cy="685" r="35"/><circle cx="490" cy="670" r="50"/></g><path d="M0 748c120-34 230-28 335 0 93 24 172 21 265-4v56H0z" fill="#284b3e"/></svg>